<svg width="34" height="35" viewBox="0 0 34 35" fill="none" xmlns="http://www.w3.org/2000/svg">
<path fill-rule="evenodd" clip-rule="evenodd" d="M17 34.8953C21.5087 34.8953 25.8327 33.094 29.0208 29.8877C32.2089 26.6814 34 22.3327 34 17.7983C34 13.2639 32.2089 8.9152 29.0208 5.70889C25.8327 2.50258 21.5087 0.701294 17 0.701294C12.4913 0.701294 8.1673 2.50258 4.97919 5.70889C1.79107 8.9152 0 13.2639 0 17.7983C0 22.3327 1.79107 26.6814 4.97919 29.8877C8.1673 33.094 12.4913 34.8953 17 34.8953ZM23.9062 19.4011C24.3289 19.4011 24.7343 19.2323 25.0332 18.9317C25.3321 18.6311 25.5 18.2234 25.5 17.7983C25.5 17.3732 25.3321 16.9655 25.0332 16.6649C24.7343 16.3643 24.3289 16.1955 23.9062 16.1955H14.1525L18.615 12.0281C18.925 11.739 19.1081 11.3379 19.124 10.9131C19.1399 10.4883 18.9874 10.0745 18.7 9.76271C18.4126 9.45097 18.0138 9.26683 17.5914 9.2508C17.1689 9.23477 16.7575 9.38816 16.4475 9.67722L9.01 16.6229C8.84908 16.7729 8.7207 16.9548 8.6329 17.157C8.54511 17.3593 8.49979 17.5776 8.49979 17.7983C8.49979 18.019 8.54511 18.2373 8.6329 18.4396C8.7207 18.6418 8.84908 18.8237 9.01 18.9737L16.4475 25.9194C16.7575 26.2085 17.1689 26.3618 17.5914 26.3458C18.0138 26.3298 18.4126 26.1456 18.7 25.8339C18.9874 25.5222 19.1399 25.1084 19.124 24.6835C19.1081 24.2587 18.925 23.8576 18.615 23.5685L14.1525 19.4011H23.9062Z" fill="#FFF9F2"/>
</svg>
