<svg width="26" height="25" viewBox="0 0 26 25" fill="none" xmlns="http://www.w3.org/2000/svg">
<path d="M9 13.5C9 13.7967 8.91203 14.0867 8.7472 14.3334C8.58238 14.58 8.34811 14.7723 8.07403 14.8858C7.79994 14.9993 7.49834 15.0291 7.20736 14.9712C6.91639 14.9133 6.64912 14.7704 6.43934 14.5607C6.22956 14.3509 6.0867 14.0836 6.02882 13.7926C5.97094 13.5017 6.00065 13.2001 6.11418 12.926C6.22771 12.6519 6.41997 12.4176 6.66665 12.2528C6.91332 12.088 7.20333 12 7.5 12C7.89782 12 8.27936 12.158 8.56066 12.4393C8.84196 12.7206 9 13.1022 9 13.5ZM18.5 12C18.2033 12 17.9133 12.088 17.6666 12.2528C17.42 12.4176 17.2277 12.6519 17.1142 12.926C17.0007 13.2001 16.9709 13.5017 17.0288 13.7926C17.0867 14.0836 17.2296 14.3509 17.4393 14.5607C17.6491 14.7704 17.9164 14.9133 18.2074 14.9712C18.4983 15.0291 18.7999 14.9993 19.074 14.8858C19.3481 14.7723 19.5824 14.58 19.7472 14.3334C19.912 14.0867 20 13.7967 20 13.5C20 13.1022 19.842 12.7206 19.5607 12.4393C19.2794 12.158 18.8978 12 18.5 12ZM26 2.4125V13C26 19.6125 20.1625 25 13 25C5.8375 25 0 19.6125 0 13V2.4125C0.000675982 2.01743 0.11834 1.63142 0.338149 1.30315C0.557958 0.97488 0.870063 0.719063 1.23509 0.56797C1.60012 0.416877 2.00173 0.377276 2.38924 0.454164C2.77675 0.531052 3.13281 0.720984 3.4125 0.999999L5.5625 3.15C6.51002 2.5441 7.53069 2.06106 8.6 1.7125L8.8 1.65C11.533 0.78371 14.467 0.78371 17.2 1.65L17.4 1.7125C18.4693 2.06106 19.49 2.5441 20.4375 3.15L22.5875 0.999999C22.8672 0.720984 23.2233 0.531052 23.6108 0.454164C23.9983 0.377276 24.3999 0.416877 24.7649 0.56797C25.1299 0.719063 25.442 0.97488 25.6619 1.30315C25.8817 1.63142 25.9993 2.01743 26 2.4125ZM24 2.4125L21.2625 5.1625C21.09 5.33099 20.863 5.43238 20.6224 5.44842C20.3818 5.46446 20.1434 5.3941 19.95 5.25C19.3433 4.79759 18.6895 4.41202 18 4.1V7C18 7.26522 17.8946 7.51957 17.7071 7.70711C17.5196 7.89464 17.2652 8 17 8C16.7348 8 16.4804 7.89464 16.2929 7.70711C16.1054 7.51957 16 7.26522 16 7V3.3875C15.3445 3.21436 14.6754 3.09728 14 3.0375V7C14 7.26522 13.8946 7.51957 13.7071 7.70711C13.5196 7.89464 13.2652 8 13 8C12.7348 8 12.4804 7.89464 12.2929 7.70711C12.1054 7.51957 12 7.26522 12 7V3.0375C11.3246 3.09728 10.6555 3.21436 10 3.3875V7C10 7.26522 9.89464 7.51957 9.70711 7.70711C9.51957 7.89464 9.26522 8 9 8C8.73478 8 8.48043 7.89464 8.29289 7.70711C8.10536 7.51957 8 7.26522 8 7V4.1C7.3105 4.41202 6.65671 4.79759 6.05 5.25C5.85665 5.3941 5.61821 5.46446 5.37761 5.44842C5.137 5.43238 4.91001 5.33099 4.7375 5.1625L2 2.4125V13C2 18.2125 6.4 22.5 12 22.9625V20.4125L10.2875 18.7125C10.128 18.5182 10.0465 18.2715 10.0589 18.0205C10.0712 17.7694 10.1765 17.5319 10.3542 17.3542C10.5319 17.1765 10.7694 17.0712 11.0205 17.0589C11.2715 17.0465 11.5182 17.128 11.7125 17.2875L13 18.5875L14.2875 17.2875C14.4818 17.128 14.7285 17.0465 14.9795 17.0589C15.2306 17.0712 15.4681 17.1765 15.6458 17.3542C15.8235 17.5319 15.9288 17.7694 15.9411 18.0205C15.9535 18.2715 15.872 18.5182 15.7125 18.7125L14 20.4125V22.9625C19.6 22.5 24 18.2125 24 13V2.4125Z" fill="#333651"/>
</svg>
