<svg width="16" height="10" viewBox="0 0 16 10" fill="none" xmlns="http://www.w3.org/2000/svg">
<path fill-rule="evenodd" clip-rule="evenodd" d="M0.345669 0.338651C0.560234 0.132216 0.84798 0.0194124 1.14567 0.0250293C1.44337 0.0306462 1.72666 0.154224 1.93328 0.368606L7.48992 6.26674L13.0466 0.368606C13.1476 0.257256 13.2699 0.167313 13.4063 0.104107C13.5427 0.0409008 13.6904 0.00571727 13.8406 0.000640697C13.9909 -0.00443588 14.1406 0.0206976 14.281 0.0745528C14.4213 0.128408 14.5495 0.209889 14.6578 0.314167C14.766 0.418445 14.8523 0.543398 14.9114 0.681624C14.9705 0.819849 15.0013 0.968533 15.0019 1.11887C15.0025 1.2692 14.9729 1.41812 14.9149 1.55681C14.8569 1.6955 14.7716 1.82113 14.6641 1.92626L8.29871 8.66613C8.19392 8.77484 8.06829 8.86132 7.92933 8.92038C7.79036 8.97945 7.64092 9.00989 7.48992 9.00989C7.33893 9.00989 7.18948 8.97945 7.05052 8.92038C6.91156 8.86132 6.78593 8.77484 6.68114 8.66613L0.315714 1.92626C0.109279 1.7117 -0.00352464 1.42395 0.00209224 1.12626C0.00770911 0.828562 0.131287 0.545276 0.345669 0.338651Z" fill="#FFF9F2"/>
</svg>
