<svg width="32" height="32" viewBox="0 0 32 32" fill="none" xmlns="http://www.w3.org/2000/svg">
<path d="M13 17.5C13 17.7967 12.912 18.0867 12.7472 18.3334C12.5824 18.58 12.3481 18.7723 12.074 18.8858C11.7999 18.9993 11.4983 19.0291 11.2073 18.9712C10.9164 18.9133 10.6491 18.7704 10.4393 18.5607C10.2295 18.3509 10.0867 18.0836 10.0288 17.7926C9.97093 17.5017 10.0006 17.2001 10.1142 16.926C10.2277 16.6519 10.42 16.4176 10.6666 16.2528C10.9133 16.088 11.2033 16 11.5 16C11.8978 16 12.2793 16.158 12.5606 16.4393C12.842 16.7206 13 17.1022 13 17.5ZM20.5 16C20.2033 16 19.9133 16.088 19.6666 16.2528C19.42 16.4176 19.2277 16.6519 19.1142 16.926C19.0006 17.2001 18.9709 17.5017 19.0288 17.7926C19.0867 18.0836 19.2295 18.3509 19.4393 18.5607C19.6491 18.7704 19.9164 18.9133 20.2073 18.9712C20.4983 19.0291 20.7999 18.9993 21.074 18.8858C21.3481 18.7723 21.5824 18.58 21.7472 18.3334C21.912 18.0867 22 17.7967 22 17.5C22 17.1022 21.8419 16.7206 21.5606 16.4393C21.2793 16.158 20.8978 16 20.5 16ZM29.0875 18C28.8241 18.1177 28.5385 18.1774 28.25 18.175C27.7935 18.1759 27.3511 18.0167 27 17.725V23C27 24.3261 26.4732 25.5979 25.5355 26.5355C24.5978 27.4732 23.3261 28 22 28H9.99999C8.6739 28 7.40213 27.4732 6.46445 26.5355C5.52677 25.5979 4.99999 24.3261 4.99999 23V17.725C4.64884 18.0167 4.20648 18.1759 3.74999 18.175C3.4615 18.1774 3.17588 18.1177 2.91249 18C2.50041 17.818 2.16294 17.5006 1.95605 17.1005C1.74915 16.7003 1.68526 16.2414 1.77499 15.8L3.82499 4.8625C3.87652 4.59513 3.98178 4.34099 4.13439 4.11549C4.287 3.88998 4.48379 3.69778 4.71283 3.55054C4.94188 3.4033 5.19843 3.30406 5.46694 3.25885C5.73545 3.21364 6.01035 3.22338 6.27499 3.2875L13.125 5H18.875L25.725 3.2875C25.9896 3.22338 26.2645 3.21364 26.533 3.25885C26.8015 3.30406 27.0581 3.4033 27.2871 3.55054C27.5162 3.69778 27.713 3.88998 27.8656 4.11549C28.0182 4.34099 28.1234 4.59513 28.175 4.8625L30.225 15.8C30.3147 16.2414 30.2508 16.7003 30.0439 17.1005C29.837 17.5006 29.4996 17.818 29.0875 18ZM11.2625 6.6L5.78749 5.225L3.73749 16.175L11.2625 6.6ZM25 23V15.25L18.5125 7H13.4875L6.99999 15.25V23C7.00328 23.7946 7.3204 24.5558 7.8823 25.1177C8.4442 25.6796 9.20535 25.9967 9.99999 26H15V24.4125L13.2875 22.7125C13.128 22.5182 13.0465 22.2715 13.0589 22.0205C13.0712 21.7694 13.1765 21.5319 13.3542 21.3542C13.5319 21.1765 13.7694 21.0712 14.0205 21.0589C14.2715 21.0465 14.5182 21.128 14.7125 21.2875L16 22.5875L17.2875 21.2875C17.4818 21.128 17.7284 21.0465 17.9795 21.0589C18.2305 21.0712 18.468 21.1765 18.6458 21.3542C18.8235 21.5319 18.9288 21.7694 18.9411 22.0205C18.9534 22.2715 18.8719 22.5182 18.7125 22.7125L17 24.4125V26H22C22.7946 25.9967 23.5558 25.6796 24.1177 25.1177C24.6796 24.5558 24.9967 23.7946 25 23ZM28.2625 16.175L26.2125 5.225L20.7375 6.6L28.2625 16.175Z" fill="#333651"/>
</svg>
