<svg width="29" height="25" viewBox="0 0 29 25" fill="none" xmlns="http://www.w3.org/2000/svg">
<path d="M11.5 14.5C11.5 14.7967 11.412 15.0867 11.2472 15.3334C11.0824 15.58 10.8481 15.7723 10.574 15.8858C10.2999 15.9993 9.99832 16.0291 9.70735 15.9712C9.41638 15.9133 9.1491 15.7704 8.93933 15.5607C8.72955 15.3509 8.58669 15.0836 8.52881 14.7926C8.47093 14.5017 8.50064 14.2001 8.61417 13.926C8.7277 13.6519 8.91996 13.4176 9.16663 13.2528C9.4133 13.088 9.70331 13 9.99999 13C10.3978 13 10.7793 13.158 11.0606 13.4393C11.342 13.7206 11.5 14.1022 11.5 14.5ZM19 13C18.7033 13 18.4133 13.088 18.1666 13.2528C17.92 13.4176 17.7277 13.6519 17.6142 13.926C17.5006 14.2001 17.4709 14.5017 17.5288 14.7926C17.5867 15.0836 17.7295 15.3509 17.9393 15.5607C18.1491 15.7704 18.4164 15.9133 18.7073 15.9712C18.9983 16.0291 19.2999 15.9993 19.574 15.8858C19.8481 15.7723 20.0824 15.58 20.2472 15.3334C20.412 15.0867 20.5 14.7967 20.5 14.5C20.5 14.1022 20.3419 13.7206 20.0606 13.4393C19.7793 13.158 19.3978 13 19 13ZM27.5875 15C27.3241 15.1177 27.0385 15.1774 26.75 15.175C26.2935 15.1759 25.8511 15.0167 25.5 14.725V20C25.5 21.3261 24.9732 22.5979 24.0355 23.5355C23.0978 24.4732 21.8261 25 20.5 25H8.49999C7.1739 25 5.90213 24.4732 4.96445 23.5355C4.02677 22.5979 3.49999 21.3261 3.49999 20V14.725C3.14884 15.0167 2.70648 15.1759 2.24999 15.175C1.9615 15.1774 1.67588 15.1177 1.41249 15C1.00041 14.818 0.662941 14.5006 0.456045 14.1005C0.249149 13.7003 0.185264 13.2414 0.274985 12.8L2.32499 1.8625C2.37652 1.59513 2.48178 1.34099 2.63439 1.11549C2.787 0.889978 2.98379 0.697784 3.21283 0.55054C3.44188 0.403295 3.69843 0.304062 3.96694 0.258849C4.23545 0.213636 4.51035 0.223382 4.77499 0.287498L11.625 2H17.375L24.225 0.287498C24.4896 0.223382 24.7645 0.213636 25.033 0.258849C25.3015 0.304062 25.5581 0.403295 25.7871 0.55054C26.0162 0.697784 26.213 0.889978 26.3656 1.11549C26.5182 1.34099 26.6234 1.59513 26.675 1.8625L28.725 12.8C28.8147 13.2414 28.7508 13.7003 28.5439 14.1005C28.337 14.5006 27.9996 14.818 27.5875 15ZM9.76249 3.6L4.28749 2.225L2.23749 13.175L9.76249 3.6ZM23.5 20V12.25L17.0125 4H11.9875L5.49999 12.25V20C5.50328 20.7946 5.8204 21.5558 6.3823 22.1177C6.9442 22.6796 7.70535 22.9967 8.49999 23H13.5V21.4125L11.7875 19.7125C11.628 19.5182 11.5465 19.2715 11.5589 19.0205C11.5712 18.7694 11.6765 18.5319 11.8542 18.3542C12.0319 18.1765 12.2694 18.0712 12.5205 18.0589C12.7715 18.0465 13.0182 18.128 13.2125 18.2875L14.5 19.5875L15.7875 18.2875C15.9818 18.128 16.2284 18.0465 16.4795 18.0589C16.7305 18.0712 16.968 18.1765 17.1458 18.3542C17.3235 18.5319 17.4288 18.7694 17.4411 19.0205C17.4534 19.2715 17.3719 19.5182 17.2125 19.7125L15.5 21.4125V23H20.5C21.2946 22.9967 22.0558 22.6796 22.6177 22.1177C23.1796 21.5558 23.4967 20.7946 23.5 20ZM26.7625 13.175L24.7125 2.225L19.2375 3.6L26.7625 13.175Z" fill="#333651"/>
</svg>
