<svg width="31" height="26" viewBox="0 0 31 26" fill="none" xmlns="http://www.w3.org/2000/svg">
<path d="M30.7542 3.74992C29.6313 4.26034 28.4208 4.59575 27.1667 4.75617C28.45 3.98325 29.4417 2.75825 29.9083 1.28534C28.6979 2.0145 27.3563 2.52492 25.9417 2.81659C24.7896 1.56242 23.1709 0.833252 21.3334 0.833252C17.9063 0.833252 15.1063 3.63325 15.1063 7.0895C15.1063 7.58534 15.1646 8.06659 15.2667 8.51867C10.075 8.25617 5.4521 5.76242 2.37502 1.98534C1.83543 2.90409 1.52918 3.98325 1.52918 5.12075C1.52918 7.29367 2.62293 9.21867 4.3146 10.3124C3.27918 10.3124 2.31668 10.0208 1.47085 9.58325V9.627C1.47085 12.6603 3.62918 15.1978 6.48752 15.7666C5.56983 16.0177 4.60641 16.0527 3.67293 15.8687C4.06903 17.1119 4.84476 18.1997 5.89108 18.9792C6.93741 19.7587 8.20171 20.1907 9.50627 20.2145C7.29489 21.9651 4.55376 22.9114 1.73335 22.8978C1.23752 22.8978 0.741683 22.8687 0.24585 22.8103C3.01668 24.5895 6.31252 25.6249 9.84168 25.6249C21.3334 25.6249 27.6479 16.0874 27.6479 7.81867C27.6479 7.54159 27.6479 7.27908 27.6333 7.002C28.8583 6.127 29.9083 5.01867 30.7542 3.74992Z" fill="#FFF9F2"/>
</svg>
