<?xml version="1.0" encoding="utf-8"?>
<!-- Generator: Adobe Illustrator 26.3.1, SVG Export Plug-In . SVG Version: 6.00 Build 0)  -->
<svg version="1.1" id="Layer_1" xmlns="http://www.w3.org/2000/svg" xmlns:xlink="http://www.w3.org/1999/xlink" x="0px" y="0px"
	 viewBox="0 0 41.3 40" style="enable-background:new 0 0 41.3 40;" xml:space="preserve">
<style type="text/css">
	.st0{opacity:0.2;clip-path:url(#SVGID_00000078742074848147790740000000371000263137015963_);}
	.st1{opacity:0.6;fill-rule:evenodd;clip-rule:evenodd;fill:#333651;}
</style>
<g>
	<defs>
		<rect id="SVGID_1_" x="0" width="41.3" height="40"/>
	</defs>
	<clipPath id="SVGID_00000160895765167982804380000003076107349973405066_">
		<use xlink:href="#SVGID_1_"  style="overflow:visible;"/>
	</clipPath>
	<g style="opacity:0.2;clip-path:url(#SVGID_00000160895765167982804380000003076107349973405066_);">
		<path class="st1" d="M0,38.6l2.9-2.8l1.5,1.4L1.5,40H0V38.6z M0,1.4l2.9,2.8l1.5-1.4L1.5,0H0V1.4L0,1.4z M39.8,40l-2.9-2.8
			l1.5-1.4l2.9,2.8V40H39.8z M41.3,1.4l-2.9,2.8l-1.5-1.4L39.8,0h1.5V1.4z M20.6,18.6l2.9-2.8l1.5,1.4L22.1,20l2.9,2.8l-1.5,1.4
			l-2.9-2.8l-2.9,2.8l-1.5-1.4l2.9-2.8l-2.9-2.8l1.5-1.4L20.6,18.6L20.6,18.6z"/>
	</g>
</g>
</svg>
